<?xml version="1.0" standalone="no"?>
<!DOCTYPE svg PUBLIC "-//W3C//DTD SVG 20010904//EN"
 "http://www.w3.org/TR/2001/REC-SVG-20010904/DTD/svg10.dtd">
<svg version="1.0" xmlns="http://www.w3.org/2000/svg"
 width="512.000000pt" height="512.000000pt" viewBox="0 0 512.000000 512.000000"
 preserveAspectRatio="xMidYMid meet">

<g transform="translate(0.000000,512.000000) scale(0.100000,-0.100000)"
fill="#000000" stroke="none">
<path d="M550 4929 c-113 -72 -208 -136 -212 -142 -4 -7 -8 -60 -8 -119 l0
-108 -39 0 c-23 0 -48 -8 -62 -19 -24 -19 -24 -21 -27 -247 -2 -158 1 -236 9
-256 16 -40 62 -51 197 -46 162 5 156 -5 160 246 5 292 -4 322 -93 322 l-46 0
3 63 3 62 280 0 280 0 -1 -310 c-1 -170 -4 -326 -8 -345 -7 -32 21 -94 325
-725 l332 -690 -140 -1230 c-89 -779 -137 -1238 -132 -1252 10 -28 45 -46 72
-39 13 3 174 179 371 406 192 220 353 399 358 398 5 -2 49 -50 98 -107 l90
-104 0 -256 c0 -282 4 -302 63 -345 28 -21 35 -21 875 -21 928 0 894 -2 932
60 19 30 20 49 20 317 l0 285 101 7 c221 14 352 59 445 151 116 114 128 197
122 860 -4 364 -7 439 -21 488 -61 210 -221 367 -430 423 -42 11 -213 14 -901
14 -674 0 -847 3 -843 13 3 6 148 308 322 669 302 625 317 659 306 689 -7 21
-11 141 -11 340 l0 309 280 0 280 0 0 -65 0 -65 -39 0 c-24 0 -48 -8 -65 -21
l-26 -20 0 -243 c0 -304 -15 -281 182 -281 191 0 178 -21 178 282 l0 234 -25
24 c-18 19 -35 25 -65 25 l-42 0 3 110 c3 87 0 113 -11 124 -8 8 -105 71 -214
140 l-200 126 -1410 0 -1411 -1 -205 -130z m3128 -51 l130 -83 -819 -3 c-451
-1 -1189 -1 -1641 0 l-822 3 130 82 129 82 1382 1 1381 0 130 -82z m-1560
-255 l3 -63 -39 0 c-25 0 -49 -8 -66 -21 l-26 -20 0 -243 c0 -297 -9 -279 147
-284 123 -4 167 2 194 29 18 18 19 35 19 254 l0 236 -25 24 c-18 18 -35 25
-65 25 l-40 0 0 65 0 65 508 -2 507 -3 2 -300 3 -300 -531 -405 c-292 -223
-536 -404 -544 -404 -7 1 -249 182 -539 404 l-526 402 0 304 0 304 508 -2 507
-3 3 -62z m-1658 -348 l0 -186 -77 3 -78 3 -3 183 -2 182 80 0 80 0 0 -185z
m1788 3 l-3 -183 -77 -3 -78 -3 0 186 0 185 80 0 80 0 -2 -182z m1780 0 l-3
-183 -77 -3 -78 -3 0 186 0 185 80 0 80 0 -2 -182z m-2340 -772 c222 -170 402
-312 400 -316 -5 -14 -380 -472 -383 -468 -6 5 -585 1209 -585 1215 0 2 37
-24 83 -59 45 -36 263 -203 485 -372z m1519 412 c-16 -39 -570 -1184 -576
-1190 -6 -7 -377 439 -383 460 -3 10 939 740 956 741 4 1 6 -5 3 -11z m-864
-1010 c95 -117 177 -219 181 -225 6 -10 -68 -13 -354 -13 -264 0 -361 3 -358
11 4 12 349 439 354 439 2 0 81 -96 177 -212z m132 -367 c-17 -15 -92 -86
-168 -156 l-139 -127 -21 19 c-12 11 -85 77 -162 148 -77 70 -144 132 -149
137 -6 4 143 8 329 8 l340 0 -30 -29z m1986 13 c155 -45 283 -173 335 -334 16
-48 18 -107 22 -491 5 -594 -6 -689 -90 -776 -62 -64 -200 -107 -380 -119
l-98 -7 0 303 c0 284 -1 305 -20 335 -26 43 -61 57 -152 63 l-78 5 0 33 c0 24
5 34 15 34 24 0 39 43 26 69 -7 11 -18 21 -26 21 -10 0 -15 11 -15 35 0 24 5
35 15 35 8 0 19 10 26 21 13 26 -2 69 -26 69 -23 0 -20 57 4 70 11 5 22 19 26
30 7 23 -10 60 -29 60 -8 0 -16 17 -20 41 -15 93 -57 129 -151 129 -95 0 -140
-36 -151 -121 -5 -34 -11 -49 -25 -52 -10 -3 -21 -17 -25 -33 -6 -22 -2 -31
19 -49 30 -23 38 -75 12 -75 -8 0 -19 -10 -26 -21 -13 -26 2 -69 26 -69 23 0
20 -57 -4 -70 -11 -5 -22 -19 -26 -30 -8 -24 11 -60 30 -60 10 0 15 -11 15
-35 l0 -35 -385 0 -385 0 0 33 c0 24 6 35 23 42 33 15 35 59 3 81 -34 21 -34
57 0 78 32 22 30 66 -3 81 -31 13 -32 64 -3 72 39 10 39 80 0 90 -15 4 -20 14
-20 40 0 77 -55 133 -131 133 -27 0 -49 3 -49 8 0 4 -9 81 -20 172 -11 91 -20
175 -20 188 l0 22 853 0 c751 0 860 -2 908 -16z m-2516 -230 c77 -71 140 -132
140 -135 0 -9 -427 -401 -431 -396 -2 1 14 158 36 347 22 190 40 354 40 365 0
16 6 14 38 -16 20 -19 100 -93 177 -165z m681 -17 c13 -125 15 -166 5 -196 -6
-21 -11 -52 -11 -68 0 -22 -6 -32 -20 -36 -39 -10 -39 -80 0 -90 15 -4 20 -13
20 -37 0 -17 -4 -30 -9 -28 -5 2 -90 78 -190 170 l-180 167 177 164 c206 191
181 196 208 -46z m-221 -406 c110 -101 204 -188 210 -193 6 -5 1 -11 -13 -15
-40 -10 -42 -80 -2 -90 26 -7 25 -25 -2 -50 -16 -14 -42 -22 -87 -26 -109 -9
-151 -60 -151 -182 l-1 -70 -93 -105 c-51 -58 -97 -103 -102 -100 -19 10 -504
574 -502 582 2 5 116 112 253 238 242 223 250 229 269 212 11 -9 111 -100 221
-201z m413 142 l3 -33 -50 0 c-49 0 -51 1 -51 28 0 38 7 43 55 40 37 -3 40 -5
43 -35z m1076 12 c9 -37 0 -45 -49 -45 -49 0 -60 10 -51 46 6 21 12 24 50 24
39 0 45 -3 50 -25z m-1074 -175 c0 -29 -1 -30 -50 -30 -49 0 -50 1 -50 30 0
29 1 30 50 30 49 0 50 -1 50 -30z m1078 3 c-3 -26 -6 -28 -53 -28 -47 0 -50 2
-53 28 -3 27 -3 27 53 27 56 0 56 0 53 -27z m-1078 -158 c0 -23 -3 -25 -50
-25 -47 0 -50 2 -50 25 0 23 3 25 50 25 47 0 50 -2 50 -25z m1080 0 c0 -24 -3
-25 -55 -25 -52 0 -55 1 -55 25 0 24 3 25 55 25 52 0 55 -1 55 -25z m-1080
-160 l0 -35 -50 0 -50 0 0 35 0 35 50 0 50 0 0 -35z m1078 -2 l3 -33 -55 0
c-55 0 -56 1 -56 28 0 39 7 43 60 40 43 -3 45 -5 48 -35z m-2033 -308 c115
-132 215 -248 222 -257 13 -15 -17 -53 -294 -370 -169 -195 -309 -349 -311
-343 -2 9 119 1095 134 1203 8 53 -23 82 249 -233z m2273 163 c17 -17 17
-1229 0 -1246 -16 -16 -1629 -17 -1659 -2 -18 10 -19 28 -19 625 0 574 1 615
18 624 26 16 1644 15 1660 -1z m-1778 -435 l-1 -138 -59 65 c-33 36 -60 68
-60 72 0 6 111 138 117 138 2 0 3 -62 3 -137z"/>
<path d="M1504 3445 c-16 -25 -16 -27 20 -78 20 -29 71 -97 114 -152 79 -101
107 -120 138 -95 31 26 15 61 -97 206 -119 156 -141 171 -175 119z"/>
<path d="M2758 3458 c-27 -22 -218 -284 -218 -300 0 -25 37 -51 62 -45 25 7
238 283 238 310 0 38 -51 59 -82 35z"/>
<path d="M2722 1220 c-60 -37 -62 -53 -62 -427 0 -379 2 -392 70 -425 32 -16
81 -18 578 -18 590 0 576 -1 621 56 20 26 21 37 21 390 l0 364 -34 38 -34 37
-564 3 c-551 2 -564 2 -596 -18z m518 -425 l345 -345 -190 0 -190 0 -222 222
-223 223 0 116 c0 64 3 119 7 122 3 4 34 7 67 7 l61 0 345 -345z m393 127
l218 -218 -3 -124 -3 -125 -60 -3 -60 -3 -345 346 -345 345 190 0 190 0 218
-218z m213 205 c2 -7 3 -72 2 -145 l-3 -132 -145 145 -145 145 143 0 c108 0
144 -3 148 -13z m-928 -675 c-73 -1 -138 0 -145 2 -10 4 -13 40 -13 148 l0
143 145 -145 145 -145 -132 -3z"/>
</g>
</svg>
