<?xml version="1.0" standalone="no"?>
<!DOCTYPE svg PUBLIC "-//W3C//DTD SVG 20010904//EN"
 "http://www.w3.org/TR/2001/REC-SVG-20010904/DTD/svg10.dtd">
<svg version="1.0" xmlns="http://www.w3.org/2000/svg"
 width="512.000000pt" height="512.000000pt" viewBox="0 0 512.000000 512.000000"
 preserveAspectRatio="xMidYMid meet">

<g transform="translate(0.000000,512.000000) scale(0.100000,-0.100000)"
fill="#000000" stroke="none">
<path d="M2320 5004 c-19 -2 -78 -9 -130 -15 -387 -43 -856 -206 -1321 -459
-191 -104 -445 -257 -469 -282 -20 -21 -20 -34 -20 -910 0 -557 4 -925 11
-986 46 -427 213 -792 503 -1099 110 -117 200 -186 766 -594 822 -591 819
-589 850 -589 30 0 32 1 795 549 557 401 654 473 749 562 324 303 525 713 575
1171 7 61 11 429 11 986 0 876 0 889 -20 910 -11 12 -91 64 -178 115 -600 358
-1068 545 -1547 618 -124 19 -485 34 -575 23z m510 -180 c465 -61 917 -236
1513 -587 l138 -82 -4 -910 c-3 -802 -6 -920 -20 -995 -57 -288 -160 -524
-322 -739 -77 -102 -231 -257 -330 -332 -185 -141 -1282 -923 -1295 -923 -16
0 -1227 867 -1340 959 -271 221 -469 523 -564 860 -61 214 -59 180 -63 1170
l-4 910 138 82 c402 237 686 369 1020 476 381 123 758 159 1133 111z"/>
<path d="M2325 4629 c-275 -22 -561 -97 -874 -230 -264 -111 -670 -333 -690
-376 -15 -33 -15 -1495 0 -1631 40 -371 171 -645 429 -902 115 -115 170 -157
695 -534 314 -225 582 -414 598 -420 19 -7 35 -7 55 0 15 6 158 104 317 219
160 115 416 299 570 409 234 168 300 221 405 326 258 257 389 531 429 902 15
136 15 1598 0 1631 -20 43 -426 265 -690 376 -451 191 -841 263 -1244 230z
m586 -193 c321 -61 654 -190 1037 -401 l163 -90 -4 -785 c-4 -861 -3 -844 -67
-1041 -65 -199 -170 -368 -326 -523 -71 -72 -196 -167 -600 -457 -280 -201
-530 -381 -556 -400 l-48 -33 -47 33 c-27 19 -277 199 -557 400 -404 290 -529
385 -600 457 -156 155 -261 324 -326 523 -64 197 -63 180 -67 1038 l-4 782 40
26 c199 125 570 298 813 379 298 99 468 126 783 122 199 -3 249 -7 366 -30z"/>
<path d="M2378 4340 c-230 -42 -439 -197 -540 -402 -65 -132 -71 -161 -76
-394 l-4 -211 -53 -6 c-106 -11 -207 -88 -239 -185 -24 -69 -24 -1385 0 -1454
21 -64 75 -122 142 -155 l57 -28 845 0 845 0 57 28 c32 16 73 47 92 69 69 80
67 57 64 834 -3 647 -4 701 -21 731 -48 90 -137 150 -232 160 l-53 6 -4 211
c-5 233 -11 262 -76 394 -89 180 -256 319 -457 382 -78 24 -266 35 -347 20z
m248 -161 c32 -6 97 -28 143 -50 150 -70 274 -221 316 -384 11 -42 15 -111 15
-237 l0 -178 -74 0 -73 0 -5 178 c-5 152 -9 185 -28 237 -44 117 -117 196
-229 249 -62 29 -73 31 -181 31 -108 0 -119 -2 -180 -31 -114 -55 -186 -132
-230 -249 -19 -52 -23 -85 -28 -237 l-5 -178 -73 0 -74 0 0 178 c0 267 33 364
171 504 61 63 92 85 160 117 124 59 243 74 375 50z m-1 -333 c56 -26 119 -90
143 -145 11 -26 17 -81 20 -203 l4 -168 -282 0 -282 0 4 168 c5 187 12 213 75
282 53 60 121 90 203 90 47 0 79 -7 115 -24z m-3 -972 c160 -112 96 -366 -96
-382 -99 -8 -171 34 -212 123 -30 63 -30 107 0 170 43 91 103 127 203 122 50
-2 71 -9 105 -33z m-17 -539 c161 -42 276 -150 326 -307 10 -33 19 -62 19 -64
0 -2 -200 -4 -445 -4 -398 0 -445 2 -445 16 0 8 14 49 31 91 86 205 308 321
514 268z"/>
</g>
</svg>
