<?xml version="1.0" standalone="no"?>
<!DOCTYPE svg PUBLIC "-//W3C//DTD SVG 20010904//EN"
 "http://www.w3.org/TR/2001/REC-SVG-20010904/DTD/svg10.dtd">
<svg version="1.0" xmlns="http://www.w3.org/2000/svg"
 width="512.000000pt" height="512.000000pt" viewBox="0 0 512.000000 512.000000"
 preserveAspectRatio="xMidYMid meet">

<g transform="translate(0.000000,512.000000) scale(0.100000,-0.100000)"
fill="#000000" stroke="none">
<path d="M2883 5031 c-46 -22 -71 -28 -97 -24 -46 7 -63 -5 -94 -68 -25 -50
-33 -57 -112 -97 -47 -24 -113 -61 -148 -83 -74 -46 -136 -53 -187 -19 -58 38
-104 17 -151 -71 -20 -37 -32 -48 -43 -43 -25 10 -93 23 -127 24 -24 0 -43
-11 -76 -42 -25 -24 -71 -62 -102 -86 -36 -27 -63 -57 -73 -80 -8 -20 -24 -47
-34 -61 -23 -29 -24 -59 -3 -89 15 -22 15 -25 -4 -45 -11 -12 -23 -32 -27 -45
-3 -12 -19 -29 -34 -36 -15 -8 -49 -41 -76 -73 -94 -112 -138 -153 -166 -153
-14 0 -38 -9 -52 -20 l-26 -20 -33 20 c-43 26 -70 25 -95 -2 -53 -59 -53 -98
1 -165 33 -42 33 -43 17 -76 l-16 -34 -28 23 c-34 29 -48 30 -76 6 -15 -12
-24 -34 -30 -72 -4 -30 -13 -65 -19 -77 -17 -30 -15 -78 3 -93 9 -7 20 -31 26
-54 6 -25 27 -60 55 -89 40 -43 43 -50 29 -63 -18 -19 -19 -43 -2 -69 7 -11
19 -40 26 -64 12 -43 12 -44 -23 -80 -42 -42 -45 -72 -13 -103 12 -13 22 -36
23 -53 0 -16 4 -64 8 -105 8 -72 7 -76 -18 -99 -42 -39 -36 -88 19 -160 l45
-59 -55 -59 c-30 -32 -67 -83 -82 -113 -36 -76 -41 -80 -66 -71 -28 10 -110
-18 -154 -54 -39 -31 -83 -112 -83 -154 0 -23 -7 -34 -29 -45 -41 -21 -81 -73
-81 -104 0 -30 74 -105 155 -157 28 -18 58 -42 68 -53 12 -12 38 -23 67 -27
27 -4 66 -15 87 -26 20 -10 42 -19 48 -19 18 0 72 -62 88 -102 16 -39 67 -74
94 -64 8 3 22 2 31 -3 9 -4 66 -11 125 -15 106 -6 109 -5 133 19 14 14 29 25
33 25 5 0 26 -14 47 -31 62 -49 215 -121 243 -114 24 6 84 -17 106 -41 6 -5
28 -22 51 -37 42 -29 55 -47 74 -108 6 -22 21 -41 38 -50 15 -7 55 -31 90 -51
34 -21 68 -38 76 -38 20 0 36 -24 30 -46 -10 -39 13 -74 67 -97 50 -22 50 -22
45 -61 -3 -23 2 -55 11 -77 18 -46 44 -56 158 -63 44 -3 96 -8 116 -11 26 -5
49 -1 84 14 26 12 54 21 62 21 8 0 28 9 44 21 l29 21 31 -26 c17 -14 40 -26
52 -27 46 -2 83 4 110 18 31 16 61 10 92 -17 11 -9 44 -30 72 -46 29 -16 53
-32 53 -36 0 -11 -140 -237 -151 -243 -16 -11 -10 -61 11 -80 10 -9 41 -20 67
-23 40 -4 59 -15 111 -59 105 -88 125 -75 161 107 11 58 34 170 51 250 17 80
41 200 55 267 13 67 32 137 41 154 26 50 14 122 -35 211 -23 41 -41 84 -41 96
0 12 -12 29 -26 39 -15 10 -44 34 -66 54 l-40 35 8 65 9 64 58 20 c47 16 61
17 77 7 30 -19 84 -15 105 8 15 17 17 30 11 86 -4 37 -11 75 -16 84 -15 28
-87 52 -132 45 l-39 -7 3 49 c3 48 3 48 43 53 22 3 47 3 56 -1 8 -5 105 -9
215 -10 221 -3 248 2 310 62 l31 30 32 -39 c17 -22 31 -45 31 -51 0 -6 11 -21
25 -33 l25 -22 -21 -22 c-25 -27 -20 -67 11 -84 35 -19 107 -16 129 4 25 23
28 81 7 112 -8 11 -22 47 -31 79 -10 33 -26 77 -36 97 -11 21 -22 59 -26 85
-3 25 -14 53 -22 62 -9 9 -43 40 -75 68 l-57 53 55 54 c58 56 66 77 42 111 -7
11 -18 36 -25 56 -6 20 -22 41 -34 48 -13 7 -31 27 -40 44 -42 83 -49 114 -54
237 l-5 125 29 26 c21 18 32 40 37 69 4 27 18 57 38 78 28 32 30 40 24 85 -12
109 -90 136 -293 103 -49 -8 -139 -18 -200 -21 l-113 -7 -115 104 c-84 74
-126 105 -152 111 -20 4 -38 9 -41 11 -2 2 18 26 45 53 88 89 154 224 181 371
27 147 -8 311 -97 461 -55 93 -79 120 -164 184 -124 93 -234 134 -413 154
l-67 8 27 32 c19 23 48 39 104 57 87 30 156 85 167 136 13 59 -86 170 -151
170 -11 0 -47 -13 -81 -29z m92 -116 c0 -11 -11 -25 -25 -31 -46 -22 -75 -34
-115 -47 -29 -10 -54 -31 -91 -77 -32 -39 -61 -65 -75 -67 -13 -2 -39 -21 -57
-43 -19 -22 -39 -40 -45 -40 -7 0 -43 -16 -80 -35 -323 -166 -465 -548 -327
-879 37 -89 69 -133 185 -261 151 -165 279 -394 361 -645 26 -80 56 -154 66
-165 28 -30 98 -27 132 4 14 14 26 33 26 42 0 70 147 414 235 549 78 122 76
121 143 102 47 -12 71 -28 139 -91 45 -42 97 -89 115 -105 l33 -28 157 7 c86
3 182 11 215 16 109 19 133 21 150 15 14 -6 12 -11 -12 -36 -20 -21 -28 -39
-27 -63 1 -27 -7 -41 -38 -72 l-40 -39 0 -137 c0 -89 4 -140 11 -145 6 -3 8
-16 5 -28 -11 -40 56 -180 115 -242 l29 -30 -33 -35 c-18 -18 -51 -51 -75 -71
-23 -20 -42 -45 -42 -57 0 -31 41 -69 79 -75 23 -3 48 -19 75 -45 l41 -41 -29
0 c-22 0 -41 -12 -74 -46 -43 -45 -44 -46 -58 -25 -22 30 -72 54 -100 47 -13
-4 -36 -25 -51 -47 l-27 -41 -100 5 c-251 13 -262 12 -306 -17 -53 -35 -62
-62 -58 -168 3 -93 15 -117 56 -121 34 -2 26 -10 -31 -32 -71 -27 -83 -55 -91
-213 -2 -40 2 -59 16 -77 10 -13 18 -27 18 -32 0 -11 80 -83 92 -83 4 0 8 -9
8 -21 0 -11 19 -52 42 -90 40 -69 41 -71 29 -117 -13 -49 -41 -176 -45 -202
-1 -8 -5 -22 -9 -30 -3 -8 -15 -64 -26 -125 -11 -60 -30 -155 -42 -210 -12
-55 -21 -108 -21 -118 1 -13 -3 -15 -17 -8 -10 6 -23 17 -31 25 -7 9 -19 16
-26 16 -20 0 -17 14 6 35 11 10 20 24 20 30 0 7 8 23 18 36 39 49 72 121 68
144 -10 52 -66 112 -133 140 -21 9 -45 24 -55 35 -37 39 -144 55 -193 29 -32
-18 -33 -18 -89 12 -73 37 -127 39 -154 4 -11 -14 -28 -25 -39 -25 -10 0 -28
-6 -39 -14 -21 -15 -79 -15 -164 -2 l-45 8 -1 55 c-2 62 -22 90 -77 109 -19 6
-33 19 -35 30 -8 51 -15 64 -58 98 -26 20 -57 36 -70 36 -12 0 -24 6 -27 13
-2 7 -23 22 -46 32 -32 16 -48 32 -69 74 -15 29 -47 70 -70 90 -24 20 -58 48
-74 63 -17 16 -39 28 -48 28 -9 0 -27 12 -41 26 -20 21 -31 25 -64 21 -51 -5
-158 34 -200 74 -65 61 -168 79 -208 35 -20 -22 -30 -24 -97 -22 -83 2 -116
15 -130 52 -5 13 -21 29 -35 36 -14 6 -25 16 -25 22 0 23 -54 66 -84 66 -16 0
-37 7 -46 15 -10 9 -35 19 -56 22 -37 6 -194 98 -194 114 0 4 13 10 29 14 16
3 34 12 40 19 14 17 17 114 3 128 -16 16 -3 38 24 38 13 0 33 9 44 20 11 11
33 20 49 20 17 0 33 5 36 10 3 6 19 10 34 10 33 0 56 23 64 65 11 57 48 125
82 151 19 14 35 32 35 39 0 7 8 19 17 26 33 28 73 93 73 119 0 15 -9 35 -19
44 -11 10 -21 30 -23 45 -2 16 -12 30 -26 36 -18 8 -22 15 -16 35 8 32 7 121
-5 235 -8 87 -8 91 15 116 29 30 30 62 6 126 -13 35 -16 57 -10 83 19 77 17
110 -9 141 -14 16 -30 29 -36 29 -7 0 -18 9 -25 20 -7 11 -18 20 -26 20 -8 0
-17 15 -20 33 -14 67 -13 69 21 72 18 1 44 10 58 19 30 20 65 73 65 99 0 21 9
21 34 2 29 -22 71 -18 103 9 26 22 27 29 29 117 l2 93 69 69 c118 118 130 132
136 150 5 14 12 17 29 11 40 -13 72 -5 100 25 26 29 26 32 26 162 l0 133 38
34 c22 18 55 49 74 68 23 22 45 34 63 34 15 0 27 -4 27 -8 0 -5 18 -18 40 -31
29 -16 49 -21 69 -16 34 7 48 22 87 93 21 38 33 50 44 45 8 -4 29 -6 45 -5 17
1 60 4 97 6 48 2 75 10 97 25 16 12 77 46 136 76 107 56 176 112 189 153 6 18
15 22 46 22 22 0 56 10 81 25 49 28 64 27 64 0z m-22 -720 c43 -20 116 -93
134 -133 7 -15 12 -60 13 -101 0 -61 -4 -81 -27 -123 -50 -92 -181 -158 -275
-139 -30 6 -33 11 -39 51 -11 69 -24 96 -61 118 -27 17 -39 35 -57 89 -13 37
-30 78 -38 91 -13 20 -12 26 1 47 26 39 100 98 142 111 52 17 160 11 207 -11z"/>
</g>
</svg>
