<?xml version="1.0" standalone="no"?>
<!DOCTYPE svg PUBLIC "-//W3C//DTD SVG 20010904//EN"
 "http://www.w3.org/TR/2001/REC-SVG-20010904/DTD/svg10.dtd">
<svg version="1.0" xmlns="http://www.w3.org/2000/svg"
 width="512.000000pt" height="512.000000pt" viewBox="0 0 512.000000 512.000000"
 preserveAspectRatio="xMidYMid meet">

<g transform="translate(0.000000,512.000000) scale(0.100000,-0.100000)"
fill="#000000" stroke="none">
<path d="M2105 4940 c-332 -4 -374 -7 -398 -23 -42 -27 -56 -56 -72 -152 -28
-161 -89 -278 -200 -383 -39 -37 -99 -82 -135 -101 -168 -87 -185 -130 -145
-361 130 -754 510 -1365 1075 -1733 144 -93 297 -170 340 -170 60 0 300 135
465 262 401 307 703 770 854 1306 43 157 81 354 88 465 8 137 -7 161 -144 235
-42 22 -78 45 -80 52 -2 6 18 26 44 44 112 75 136 119 87 158 -29 23 -72 20
-114 -8 -14 -9 -29 -18 -35 -21 -5 -3 -31 -18 -58 -34 -56 -33 -60 -31 -112
55 -44 71 -72 150 -90 252 -16 88 -39 127 -89 151 -30 14 -86 16 -473 14 -241
-1 -605 -5 -808 -8z m1220 -177 c22 -129 71 -254 136 -350 l29 -42 -52 -35
-53 -36 -23 28 c-30 37 -107 187 -123 240 -15 50 -56 89 -102 97 -18 3 -294 2
-615 -2 l-584 -8 -28 -31 c-15 -18 -36 -56 -45 -85 -58 -176 -192 -351 -353
-459 -29 -20 -59 -50 -68 -69 -15 -32 -15 -40 6 -145 37 -185 126 -450 211
-622 176 -360 453 -664 786 -862 115 -69 133 -69 249 4 135 84 228 158 342
268 180 175 293 331 416 575 109 216 171 400 216 642 21 110 21 118 6 151 -11
23 -41 52 -86 82 -99 68 -99 67 -36 110 l54 37 49 -34 c26 -19 76 -49 111 -66
59 -30 62 -33 62 -69 0 -59 -37 -267 -69 -392 -155 -598 -473 -1066 -934
-1374 -52 -34 -130 -81 -175 -104 l-81 -43 -63 32 c-642 321 -1093 987 -1211
1789 -8 52 -13 100 -10 106 2 6 25 21 51 33 240 117 403 344 447 623 l6 38
342 3 c188 1 532 3 764 5 l422 2 6 -37z m-210 -290 c25 -66 67 -149 103 -203
20 -29 27 -48 22 -55 -5 -7 -47 -30 -92 -53 -46 -22 -92 -47 -102 -55 -18 -13
-22 -12 -39 9 -22 28 -156 95 -242 120 -83 25 -304 25 -393 1 -206 -56 -405
-226 -472 -403 -43 -117 -49 -278 -14 -404 27 -96 74 -170 164 -260 91 -91
158 -133 283 -177 95 -33 285 -43 394 -20 234 50 428 211 510 425 21 54 27 90
31 182 5 132 -10 209 -58 297 l-29 54 82 65 c45 36 89 69 97 74 20 11 168 -97
169 -124 1 -28 -57 -271 -86 -360 -37 -113 -129 -315 -195 -426 -149 -252
-348 -462 -585 -617 -44 -29 -87 -53 -95 -53 -21 0 -194 115 -278 185 -310
259 -515 591 -649 1050 -22 77 -43 158 -47 181 -6 39 -5 41 49 83 147 113 284
291 343 446 l29 75 385 2 c212 2 455 4 541 6 l156 2 18 -47z m-453 -448 c37
-7 96 -27 132 -42 l65 -29 -59 -47 c-32 -26 -102 -89 -155 -139 l-96 -91 -67
65 c-87 85 -140 113 -188 98 -52 -17 -77 -56 -70 -107 3 -24 16 -60 29 -80 13
-21 35 -60 49 -88 14 -27 34 -66 45 -85 11 -19 41 -74 67 -121 25 -48 53 -93
62 -100 8 -7 37 -13 64 -13 58 -1 76 13 127 98 91 153 226 331 300 396 l38 33
18 -59 c51 -164 -25 -351 -186 -455 -87 -56 -153 -74 -277 -73 -84 0 -116 5
-161 22 -251 99 -365 345 -261 565 59 128 187 223 337 253 81 16 109 16 187
-1z"/>
<path d="M130 2579 c-52 -16 -86 -44 -109 -92 -21 -43 -21 -50 -21 -1045 0
-683 3 -1010 11 -1029 13 -34 55 -80 91 -99 40 -21 746 -21 787 0 64 34 96 89
103 182 l3 31 430 -164 c237 -89 459 -172 494 -183 109 -34 36 -43 1506 170
154 22 304 47 334 56 65 19 170 71 226 111 43 32 1038 926 1067 959 67 77 85
236 36 329 -54 103 -146 166 -253 173 -51 4 -65 9 -95 37 -54 51 -113 77 -188
83 -85 6 -133 -8 -212 -59 l-63 -40 -61 28 c-48 22 -76 28 -131 28 -129 0
-138 -6 -431 -297 l-261 -259 -26 44 c-54 92 -179 175 -297 197 -30 6 -291 31
-580 56 l-525 45 -83 34 c-46 18 -168 79 -273 135 -257 138 -340 169 -526 192
l-91 12 -4 126 c-3 117 -5 129 -30 167 -50 77 -57 78 -448 80 -210 1 -359 -2
-380 -8z m699 -153 c8 -10 10 -277 9 -992 l-3 -979 -340 0 -340 0 -3 979 c-1
715 1 982 9 992 9 11 74 14 334 14 260 0 325 -3 334 -14z m294 -381 c115 -20
226 -62 355 -133 157 -88 318 -166 397 -195 62 -22 128 -30 610 -72 297 -25
563 -53 592 -61 108 -30 200 -139 211 -253 l4 -47 -705 -43 c-387 -24 -720
-41 -739 -37 -19 3 -53 22 -75 41 -68 58 -143 38 -143 -37 0 -43 69 -109 147
-138 54 -21 69 -22 208 -16 152 6 542 30 1095 66 247 16 333 18 453 11 82 -6
156 -7 165 -4 9 4 249 162 532 352 501 336 516 345 570 349 45 3 61 0 89 -20
74 -50 100 -130 66 -202 -12 -25 -168 -171 -503 -474 -267 -240 -507 -454
-532 -475 -57 -48 -147 -92 -225 -111 -33 -8 -409 -65 -835 -127 -577 -83
-790 -110 -835 -106 -57 5 -176 48 -930 336 l-100 39 -3 686 -2 686 24 0 c13
0 62 -7 109 -15z m3472 -109 c29 -12 28 -13 -458 -339 -477 -320 -487 -327
-523 -319 l-38 8 75 55 c172 129 603 449 707 526 105 76 117 83 160 83 26 -1
60 -7 77 -14z m-467 -35 c9 -5 -63 -65 -239 -195 -138 -103 -253 -185 -255
-183 -2 2 81 87 184 189 116 115 197 188 212 191 43 8 84 7 98 -2z"/>
<path d="M395 1098 c-35 -12 -92 -52 -118 -82 -89 -102 -73 -278 34 -369 43
-37 118 -67 169 -67 93 0 198 69 241 158 65 133 -9 309 -150 357 -51 17 -131
19 -176 3z m143 -152 c75 -38 74 -150 0 -196 -39 -24 -69 -25 -108 -5 -42 21
-60 53 -60 103 0 37 6 50 34 78 38 38 85 45 134 20z"/>
</g>
</svg>
