<?xml version="1.0" standalone="no"?>
<!DOCTYPE svg PUBLIC "-//W3C//DTD SVG 20010904//EN"
 "http://www.w3.org/TR/2001/REC-SVG-20010904/DTD/svg10.dtd">
<svg version="1.0" xmlns="http://www.w3.org/2000/svg"
 width="512.000000pt" height="512.000000pt" viewBox="0 0 512.000000 512.000000"
 preserveAspectRatio="xMidYMid meet">

<g transform="translate(0.000000,512.000000) scale(0.100000,-0.100000)"
fill="#000000" stroke="none">
<path d="M647 5092 c-13 -14 -17 -44 -19 -137 l-3 -120 -147 -5 -148 -5 -37
-38 -38 -37 -3 -475 -3 -475 -65 0 c-57 0 -68 -3 -91 -26 l-26 -26 7 -195 c31
-913 230 -1423 587 -1508 50 -12 136 -15 405 -15 191 0 365 4 395 10 294 56
486 392 568 995 27 196 41 395 41 577 0 146 0 147 -26 167 -20 16 -41 21 -85
21 l-58 0 -3 463 c-3 513 -2 506 -71 547 -28 17 -51 20 -169 20 l-138 0 0 120
c0 107 -2 122 -20 140 -19 19 -33 20 -428 20 -380 0 -410 -1 -425 -18z m731
-189 l3 -73 -306 0 -305 0 0 75 0 75 303 -2 302 -3 3 -72z m-848 -342 c0 -123
1 -131 22 -145 31 -22 71 -20 94 5 16 18 20 40 22 145 l4 124 83 0 83 0 4
-124 c2 -105 6 -127 22 -145 24 -27 70 -27 96 -1 18 18 20 33 20 145 l0 125
90 0 90 0 0 -119 c0 -105 2 -121 21 -145 25 -32 70 -35 99 -6 18 18 20 33 20
145 l0 125 90 0 90 0 0 -125 c0 -112 2 -127 20 -145 29 -29 74 -26 99 6 19 24
21 40 21 145 l0 119 70 0 70 0 0 -445 0 -445 -685 0 -685 0 0 445 0 445 70 0
70 0 0 -129z m1397 -1083 c-24 -688 -178 -1158 -415 -1275 l-57 -28 -380 0
c-374 0 -381 0 -429 23 -73 33 -129 83 -181 162 -140 210 -227 610 -251 1148
l-7 152 863 0 863 0 -6 -182z"/>
<path d="M580 4293 c-47 -18 -50 -28 -50 -194 l0 -158 26 -20 c26 -21 36 -21
521 -21 l494 0 25 25 c25 25 25 26 22 180 -3 132 -6 157 -21 172 -16 17 -52
18 -510 20 -271 1 -499 -1 -507 -4z m900 -193 l0 -60 -405 0 -405 0 0 60 0 60
405 0 405 0 0 -60z"/>
<path d="M610 3300 c-19 -19 -20 -33 -20 -370 0 -337 1 -351 20 -370 19 -19
33 -20 463 -20 438 0 444 0 463 21 18 20 19 43 22 363 3 335 2 343 -18 369
l-21 27 -445 0 c-431 0 -445 -1 -464 -20z m810 -370 l0 -250 -345 0 -345 0 0
250 0 250 345 0 345 0 0 -250z"/>
<path d="M2450 3591 c-70 -15 -111 -45 -146 -111 -18 -34 -19 -85 -22 -1235
-2 -846 1 -1216 9 -1253 13 -63 55 -117 114 -143 38 -18 101 -19 1254 -19 930
0 1223 3 1255 12 52 16 108 72 124 124 9 32 12 326 12 1256 l0 1214 -22 44
c-31 60 -81 97 -147 110 -61 11 -2374 12 -2431 1z m2434 -152 l26 -20 0 -1205
c0 -1191 0 -1204 -20 -1224 -20 -20 -33 -20 -1222 -20 -662 0 -1208 4 -1214 8
-6 4 -16 17 -23 29 -15 30 -16 2385 0 2414 6 11 20 24 32 29 12 5 550 9 1208
9 1185 1 1186 1 1213 -20z"/>
<path d="M2747 3132 c-16 -17 -17 -80 -17 -695 l0 -676 26 -20 c22 -17 41 -21
105 -21 l79 0 0 -84 c0 -69 4 -88 21 -110 20 -25 24 -26 120 -26 l99 0 0 -90
c0 -83 2 -93 25 -115 l24 -25 434 0 c526 0 487 -11 487 136 l0 94 100 0 c134
0 140 6 140 129 l0 89 90 4 c69 2 93 7 107 21 17 17 18 60 21 686 2 665 2 668
-19 694 l-20 27 -903 0 c-862 0 -904 -1 -919 -18z m1723 -697 l0 -575 -89 0
c-85 0 -91 -1 -110 -26 -17 -22 -21 -41 -21 -109 l0 -83 -101 -4 c-132 -4
-139 -11 -139 -139 l0 -89 -345 0 -345 0 0 94 c0 90 -1 96 -26 115 -23 18 -41
21 -120 21 l-94 0 0 90 c0 121 -8 130 -125 130 l-85 0 0 575 0 575 800 0 800
0 0 -575z"/>
<path d="M3002 2867 c-20 -21 -22 -34 -22 -149 0 -125 0 -127 26 -147 35 -27
59 -26 89 4 24 23 25 30 25 145 0 115 -1 122 -25 145 -30 31 -65 32 -93 2z"/>
<path d="M3250 2870 c-18 -18 -20 -33 -20 -147 0 -71 4 -133 8 -139 13 -21 52
-34 77 -28 45 11 57 52 53 181 -3 107 -5 116 -27 134 -30 25 -66 24 -91 -1z"/>
<path d="M3499 2871 c-23 -18 -24 -25 -24 -151 0 -126 1 -133 24 -151 30 -24
52 -24 85 2 26 20 26 22 26 150 0 116 -2 131 -20 149 -25 25 -61 26 -91 1z"/>
<path d="M3745 2865 c-24 -23 -25 -30 -25 -145 0 -115 1 -122 25 -145 13 -14
34 -25 45 -25 12 0 32 11 45 25 24 23 25 30 25 149 0 123 0 125 -26 145 -35
27 -59 26 -89 -4z"/>
<path d="M3992 2870 c-20 -19 -22 -30 -22 -150 0 -127 0 -129 26 -149 33 -26
55 -26 85 -2 23 18 24 27 27 145 4 123 3 126 -22 151 -30 30 -65 32 -94 5z"/>
<path d="M4242 2874 c-21 -14 -22 -22 -22 -149 0 -141 4 -156 50 -170 20 -6
59 9 72 29 4 6 8 68 8 139 0 114 -2 129 -20 147 -24 24 -57 26 -88 4z"/>
<path d="M397 1932 c-22 -24 -22 -75 1 -95 13 -12 42 -17 112 -19 l95 -3 3
-72 3 -73 -96 0 c-106 0 -135 -14 -135 -67 0 -57 32 -73 144 -73 l86 0 0 -70
0 -70 -86 0 c-114 0 -144 -16 -144 -77 0 -50 28 -63 137 -63 l93 0 0 -110 c0
-156 -8 -150 214 -150 l174 0 4 -232 c5 -253 11 -286 70 -403 62 -123 165
-223 293 -285 141 -68 90 -65 1246 -65 1015 0 1048 1 1068 19 26 24 28 77 3
99 -16 15 -118 17 -1072 19 l-1055 3 -66 23 c-172 58 -298 197 -335 371 -9 43
-14 132 -14 259 l0 192 175 0 c173 0 176 0 200 25 23 23 25 31 25 130 l0 105
94 0 c90 0 96 1 115 26 27 35 26 59 -4 89 -22 23 -32 25 -115 25 l-90 0 0 70
0 70 90 0 c83 0 93 2 115 25 30 30 31 54 4 89 -19 25 -25 26 -115 26 l-94 0 0
75 0 75 93 0 c111 0 131 10 131 65 0 59 -16 65 -184 65 -130 0 -149 -2 -163
-18 -15 -17 -17 -60 -17 -410 l0 -392 -325 0 -325 0 0 384 c0 480 19 436 -189
436 -131 0 -150 -2 -164 -18z"/>
</g>
</svg>
